<svg xmlns="http://www.w3.org/2000/svg" viewBox="0 0 60.34 69"><defs><style>.cls-1{fill:#fff;}</style></defs><g id="Layer_2" data-name="Layer 2"><g id="Layer_1-2" data-name="Layer 1"><path class="cls-1" d="M24.32,2.57C13,4.27,7.9,5.61,4.62,7.92,2.07,9.5,0,11.56,0,12.41c.12,3.53,5.84,35.87,6.57,37.21,1.21,1.94,6.93,1.7,22-1.1,17-3.16,20.06-3.16,20.91,0s2.43,3,3.28-.36a7.2,7.2,0,0,1,3.77-4.26c1.71-.85,3.41-2.19,3.77-3.16s-1.94-9.72-5-19.57C49.85,4,49.48,3.3,45.59,1.59,43.28.62,41-.11,40.49,0S32.7,1.23,24.32,2.57ZM44.25,5c2.19,3.52,6.81,18.6,6.81,22.37,0,3.16.25,3.16-16.41,6C21,35.64,15.32,35.64,13.5,33.45S7.66,8.77,9,7.55c1.09-1.09,22.85-5,28.93-5.11C41.46,2.32,42.92,2.93,44.25,5Z"/><path class="cls-1" d="M18.48,10.47c-3,.61-3,.85-.73,12.76.73,3.65,4.13,3.53,4.13-.12,0-1.09,1.58-2.67,3.65-3.4,4.38-1.58,5.11-6.81,1.34-8.88C24.44,9.62,23.46,9.5,18.48,10.47Zm6.44,5.23a2.58,2.58,0,0,1-2.06,2.19c-1.58.24-2.19-.37-2.19-2.19s.61-2.43,2.19-2.19A2.56,2.56,0,0,1,24.92,15.7Z"/><path class="cls-1" d="M49.36,57.88c-1.7,9.85-1.58,10.7,1.82,11.07,4.14.48,5.35-2.43,2.92-7.05a17,17,0,0,1-1.82-6.08C52.28,51.68,50.21,53.14,49.36,57.88Z"/></g></g></svg>