<svg xmlns="http://www.w3.org/2000/svg" viewBox="0 0 331.92 69.75"><defs><style>.cls-1{fill:#fff;}</style></defs><g id="Layer_2" data-name="Layer 2"><g id="Layer_1-2" data-name="Layer 1"><path class="cls-1" d="M24.58,2.59C13.15,4.32,8,5.67,4.67,8,2.09,9.6,0,11.69,0,12.55c.12,3.56,5.9,36.26,6.64,37.61,1.23,2,7,1.72,22.24-1.11,17.21-3.19,20.28-3.19,21.14,0s2.46,3.08,3.32-.37a7.28,7.28,0,0,1,3.81-4.3c1.72-.86,3.44-2.21,3.81-3.19s-2-9.84-5-19.79C50.39,4.07,50,3.33,46.09,1.61,43.75.63,41.42-.11,40.93,0S33.06,1.24,24.58,2.59ZM44.74,5.05C47,8.62,51.62,23.86,51.62,27.67c0,3.19.25,3.19-16.59,6C21.26,36,15.49,36,13.64,33.81S7.74,8.86,9.1,7.63c1.1-1.1,23.1-5,29.25-5.16C41.91,2.35,43.39,3,44.74,5.05Z"/><path class="cls-1" d="M18.68,10.58c-3.07.62-3.07.86-.74,12.91.74,3.69,4.18,3.56,4.18-.12,0-1.11,1.6-2.71,3.69-3.45C30.23,18.33,31,13,27.16,11,24.7,9.72,23.72,9.6,18.68,10.58Zm6.52,5.29a2.61,2.61,0,0,1-2.09,2.21c-1.6.25-2.22-.37-2.22-2.21s.62-2.46,2.22-2.21A2.6,2.6,0,0,1,25.2,15.87Z"/><path class="cls-1" d="M49.9,58.52c-1.72,9.95-1.6,10.81,1.84,11.18,4.18.49,5.41-2.46,2.95-7.13a17.18,17.18,0,0,1-1.84-6.14C52.85,52.25,50.76,53.72,49.9,58.52Z"/><path class="cls-1" d="M97.47,23.79l-3.18,4.72a10.69,10.69,0,0,0-6.56-2.33c-4.44.06-8.74,2.93-8.93,8.29.19,5.36,4.49,8.23,8.93,8.29a10.74,10.74,0,0,0,6.56-2.32l3.18,4.71a15.21,15.21,0,0,1-9.75,3.44C79.07,48.59,73,42.13,73,34.47s6.1-14.12,14.75-14.12A15.21,15.21,0,0,1,97.47,23.79Z"/><path class="cls-1" d="M125.54,21v5.53h-8V47.94h-5.66V26.53h-8V21Z"/><path class="cls-1" d="M142.68,21a10.42,10.42,0,0,1,10.16,10.58,10.67,10.67,0,0,1-6.09,9.69l6.77,6.67h-7.3l-5.86-5.78h-2.08v5.78h-5.46V21Zm-4.4,15.69h4.4a4.87,4.87,0,0,0,4.69-5.11,4.88,4.88,0,0,0-4.69-5.12h-4.4Z"/><path class="cls-1" d="M165.68,21V42.44h12.23v5.5H160V21Z"/><path class="cls-1" d="M196,27.91v5.38h5.37v5.46H196v5.38h-5.46V38.75h-5.38V33.29h5.38V27.91Z"/><path class="cls-1" d="M218.5,21a10.41,10.41,0,0,1,10.15,10.58A10.41,10.41,0,0,1,218.5,42.16h-4.4v5.78h-5.47V21Zm-4.4,15.69h4.4a4.87,4.87,0,0,0,4.69-5.11,4.88,4.88,0,0,0-4.69-5.12h-4.4Z"/><path class="cls-1" d="M251.52,21l9.82,26.94h-5.83l-2.1-5.78h-9.6l-2.11,5.78h-5.82L245.7,21Zm-5.7,15.66h5.58L248.61,29Z"/><path class="cls-1" d="M273,21V47.94h-5.49V21Z"/><path class="cls-1" d="M285.2,21l12.4,16.32V21h5.5V47.94h-4.91L285.78,31.61V47.94h-5.49V21Zm-4.91,26.94h0Z"/><path class="cls-1" d="M331.92,21v5.53h-8V47.94H318.3V26.53h-8V21Z"/></g></g></svg>