<svg xmlns="http://www.w3.org/2000/svg" viewBox="0 0 633.52 149.94"><defs><style>.cls-1{fill:#fff;}</style></defs><g id="Layer_2" data-name="Layer 2"><g id="Layer_1-2" data-name="Layer 1"><path class="cls-1" d="M224,52.57l-6.44,9.54a21.73,21.73,0,0,0-13.26-4.7c-9,.13-17.69,5.93-18.07,16.77C186.56,85,195.26,90.83,204.25,91a21.67,21.67,0,0,0,13.26-4.7L224,95.79a30.82,30.82,0,0,1-19.72,7c-17.5,0-29.86-13.08-29.86-28.57s12.36-28.56,29.86-28.56A30.81,30.81,0,0,1,224,52.57Z"/><path class="cls-1" d="M274.41,46.93V58.12h-16.1v43.31H246.85V58.12h-16.1V46.93Z"/><path class="cls-1" d="M302.78,46.93c11.45,0,20.54,9.81,20.54,21.4A21.59,21.59,0,0,1,311,87.94l13.69,13.49H309.94l-11.87-11.7h-4.2v11.7H282.82V46.93Zm-8.91,31.75h8.91c5.14,0,9.49-4.41,9.49-10.35S307.92,58,302.78,58h-8.91Z"/><path class="cls-1" d="M343,46.93V90.3h24.75v11.13h-36.2V46.93Z"/><path class="cls-1" d="M398.05,60.92V71.79h10.87v11H398.05V93.72H387V82.84H376.13v-11H387V60.92Z"/><path class="cls-1" d="M437.21,46.93c11.45,0,20.54,9.81,20.54,21.4s-9.09,21.4-20.54,21.4H428.3v11.7H417.25V46.93ZM428.3,78.68h8.91c5.14,0,9.49-4.41,9.49-10.35S442.35,58,437.21,58H428.3Z"/><path class="cls-1" d="M489.81,46.93l19.86,54.5H497.89l-4.26-11.7H474.22L470,101.43H458.17L478,46.93ZM478.27,78.61h11.3L483.92,63.1Z"/><path class="cls-1" d="M527,46.93v54.5H515.92V46.93Z"/><path class="cls-1" d="M545.32,46.93l25.09,33v-33h11.12v54.5h-9.94l-25.09-33v33H535.38V46.93Zm-9.94,54.5h0Z"/><path class="cls-1" d="M633.52,46.93V58.12h-16.1v43.31H606V58.12h-16.1V46.93Z"/><path class="cls-1" d="M52.84,5.58C28.27,9.28,17.17,12.18,10,17.2,4.49,20.64,0,25.13,0,27c.26,7.66,12.68,77.93,14.27,80.84,2.64,4.23,15.06,3.7,47.82-2.38,37-6.87,43.59-6.87,45.44,0,1.85,7.14,5.28,6.61,7.13-.79.79-3.43,4.49-7.66,8.19-9.25,3.7-1.85,7.4-4.75,8.19-6.87S126.81,67.4,120.21,46C108.32,8.75,107.53,7.16,99.07,3.46,94.05,1.35,89-.24,88,0S71.07,2.67,52.84,5.58Zm43.33,5.28C100.92,18.52,111,51.28,111,59.47c0,6.87.53,6.87-35.66,13-29.59,5-42,5-46,.26S16.64,19.05,19.55,16.41C21.93,14,69.22,5.58,82.43,5.31,90.09,5.05,93.26,6.37,96.17,10.86Z"/><path class="cls-1" d="M40.16,22.75c-6.61,1.32-6.61,1.85-1.59,27.74,1.59,7.93,9,7.66,9-.26,0-2.38,3.43-5.82,7.92-7.4C65,39.39,66.58,28,58.39,23.54,53.1,20.9,51,20.64,40.16,22.75Zm14,11.36c0,2.11-2.11,4.23-4.49,4.76-3.44.52-4.76-.8-4.76-4.76s1.32-5.28,4.76-4.76C52.05,29.88,54.16,32,54.16,34.11Z"/><path class="cls-1" d="M107.26,125.79c-3.7,21.4-3.43,23.25,4,24,9,1,11.62-5.29,6.34-15.33-2.12-4.22-4-10-4-13.21C113.6,112.31,109.11,115.48,107.26,125.79Z"/></g></g></svg>