<svg xmlns="http://www.w3.org/2000/svg" viewBox="0 0 456.14 86.58"><defs><style>.cls-1{fill:#fff;}</style></defs><g id="Layer_2" data-name="Layer 2"><g id="Layer_1-2" data-name="Layer 1"><path class="cls-1" d="M171,9.25V53.93a19.67,19.67,0,0,1-2.16,9.29,22,22,0,0,1-5.81,7,27.36,27.36,0,0,1-8.3,4.49,29.35,29.35,0,0,1-9.5,1.58,32.19,32.19,0,0,1-10.09-1.58,26.32,26.32,0,0,1-8.4-4.49,21.59,21.59,0,0,1-5.7-7.08A20.13,20.13,0,0,1,119,53.93V9.25h8.45V53.82a12.13,12.13,0,0,0,1.42,5.76,15.38,15.38,0,0,0,3.86,4.7,17.91,17.91,0,0,0,5.65,3.12,21.94,21.94,0,0,0,13.78,0,17.19,17.19,0,0,0,5.5-3.07,14.26,14.26,0,0,0,3.64-4.64,13.16,13.16,0,0,0,1.32-5.87V9.25Z"/><path class="cls-1" d="M185.83,75.58V9.25h7.29l36.12,31.16V9.25h8.45V75.58h-8.45V51.18l-35-30.1v54.5Z"/><path class="cls-1" d="M252.48,75.58V9.25H290.4v7.81H260.93V36.29h23.56v7.82H260.93V75.58Z"/><path class="cls-1" d="M354.1,9.25V53.93a19.68,19.68,0,0,1-2.17,9.29,21.92,21.92,0,0,1-5.81,7,27.31,27.31,0,0,1-8.29,4.49,29.46,29.46,0,0,1-9.51,1.58,32.13,32.13,0,0,1-10.08-1.58,26.21,26.21,0,0,1-8.4-4.49,21.49,21.49,0,0,1-5.71-7.08A20.13,20.13,0,0,1,302,53.93V9.25h8.45V53.82a12.14,12.14,0,0,0,1.43,5.76,15.34,15.34,0,0,0,3.85,4.7,18,18,0,0,0,5.65,3.12,22,22,0,0,0,13.79,0,17.24,17.24,0,0,0,5.49-3.07,14.29,14.29,0,0,0,3.65-4.64,13.16,13.16,0,0,0,1.32-5.87V9.25Z"/><path class="cls-1" d="M406.7,67.77v7.81H368.89V9.25h8.45V67.77Z"/><path class="cls-1" d="M456.14,67.77v7.81H418.32V9.25h8.45V67.77Z"/><path class="cls-1" d="M43.29,0A43.29,43.29,0,1,0,86.58,43.29,43.29,43.29,0,0,0,43.29,0Zm0,74.21A30.92,30.92,0,1,1,74.21,43.29,30.92,30.92,0,0,1,43.29,74.21Z"/></g></g></svg>