<svg xmlns="http://www.w3.org/2000/svg" viewBox="0 0 195.21 68.62"><defs><style>.cls-1{fill:#fff;}</style></defs><g id="Layer_2" data-name="Layer 2"><g id="Layer_1-2" data-name="Layer 1"><path class="cls-1" d="M53,45.14,42.48,34.59a14.06,14.06,0,0,0-19.71,0L12.41,45a13.75,13.75,0,0,0,0,19.45h0a13.75,13.75,0,0,0,19.46,0l.76-.75.94.94a13.75,13.75,0,0,0,19.46,0h0A13.75,13.75,0,0,0,53,45.14Z"/><ellipse class="cls-1" cx="8.38" cy="27.18" rx="8.07" ry="11.92" transform="translate(-6.75 3.1) rotate(-15)"/><ellipse class="cls-1" cx="57.06" cy="27.18" rx="11.92" ry="8.07" transform="translate(16.03 75.26) rotate(-75)"/><ellipse class="cls-1" cx="23.9" cy="11.92" rx="8.07" ry="11.92"/><ellipse class="cls-1" cx="42.56" cy="11.92" rx="8.07" ry="11.92"/><path class="cls-1" d="M88,24.3a10.59,10.59,0,0,1,0,21.16h-4.4v5.78H78.09V24.3ZM83.55,40H88a4.87,4.87,0,0,0,4.69-5.11A4.88,4.88,0,0,0,88,29.76h-4.4Z"/><path class="cls-1" d="M122,24.3l9.81,26.94H126l-2.11-5.78h-9.59l-2.11,5.78h-5.83l9.82-26.94ZM116.31,40h5.59l-2.8-7.67Z"/><path class="cls-1" d="M139.74,24.3l7,19.2,5.47-15,5.41,15,7-19.2h5.86l-9.82,26.94h-6.08l-2.37-6.66-2.43,6.66H143.7L133.88,24.3Z"/><path class="cls-1" d="M193.58,26.16l-3.08,4.45a8.83,8.83,0,0,0-4.62-1.48c-1.5,0-3.21.85-3.21,2.48s2.87,2.49,4.33,3c4.49,1.21,8.21,4,8.21,8.53v0h0c0,4.44-3.66,8.76-9.51,8.76a15.19,15.19,0,0,1-9.54-3.47L179,43.65a11.28,11.28,0,0,0,6.66,2.63c1.88,0,4-.92,4-3.15,0-2-3-2.91-4.82-3.47-3.83-1-7.72-3.37-7.72-8,0-4.44,4-8,8.82-8A13.07,13.07,0,0,1,193.58,26.16Z"/></g></g></svg>