<svg xmlns="http://www.w3.org/2000/svg" viewBox="0 0 350.28 159.13"><defs><style>.cls-1{fill:#fff;}.cls-2{fill:none;stroke:#fff;stroke-miterlimit:10;stroke-width:10px;}</style></defs><g id="Layer_2" data-name="Layer 2"><g id="Layer_1-2" data-name="Layer 1"><path class="cls-1" d="M233.93,78.63a28.48,28.48,0,1,1-28.48-28.35A28.41,28.41,0,0,1,233.93,78.63Zm-45.92,0a17.45,17.45,0,1,0,17.44-17.45A17.44,17.44,0,0,0,188,78.63Z"/><path class="cls-1" d="M258,51.59c15.51,0,28.07,12.11,28.07,27s-12.56,27-28.07,27H241.21V51.59Zm-5.75,43.94H258c8.64,0,17-7.77,17-16.9s-8.36-16.9-17-16.9h-5.75Z"/><path class="cls-1" d="M330.91,51.58v9.55L304.1,94.78h26.81v10.89H289.13V96.11l26.81-33.65H289.62V51.58Z"/><path class="cls-1" d="M350.28,51.58v54.09h-11V51.58Z"/><polygon class="cls-2" points="49.27 5 37.3 5 37.3 27 62.39 27 49.27 5"/><polygon class="cls-2" points="84.13 42.96 84.13 31.38 60.2 31.38 31.25 31.38 16.19 9.38 5 9.38 5 154.13 15.81 154.13 34.34 124.03 52.86 154.13 63.29 154.13 63.29 123.25 63.29 75 84.13 42.96"/><polyline class="cls-2" points="63.29 123.25 104.2 123.25 124.28 154.13 135.08 154.13 135.08 52.61 123.5 52.61 111.54 75.78"/><polyline class="cls-2" points="99.82 123.25 99.82 154.13 88.63 154.13 69.71 123.25"/><circle class="cls-1" cx="32.01" cy="50.24" r="8.04"/><path class="cls-2" d="M135.08,76.08H46.22C38.37,76.08,32,71.53,32,65.92"/></g></g></svg>