<svg xmlns="http://www.w3.org/2000/svg" viewBox="0 0 180.69 70.06"><defs><style>.cls-1{fill:none;stroke:#fff;stroke-miterlimit:10;stroke-width:4px;}.cls-2{fill:#fff;}</style></defs><g id="Layer_2" data-name="Layer 2"><g id="Layer_1-2" data-name="Layer 1"><polygon class="cls-1" points="22.2 2 16.74 2 16.74 12.04 28.19 12.04 22.2 2"/><polygon class="cls-1" points="38.12 17.33 38.12 12.04 27.19 12.04 13.98 12.04 7.11 2 2 2 2 68.06 6.93 68.06 15.39 54.32 23.84 68.06 28.6 68.06 28.6 53.97 28.6 31.95 38.12 17.33"/><polyline class="cls-1" points="28.6 53.97 47.28 53.97 56.44 68.06 61.37 68.06 61.37 21.73 56.09 21.73 50.62 32.3"/><polyline class="cls-1" points="45.28 53.97 45.28 68.06 40.17 68.06 31.54 53.97"/><circle class="cls-2" cx="16.39" cy="20.26" r="3.67"/><path class="cls-1" d="M61.37,32.44H20.81c-3.58,0-6.48-2.08-6.48-4.64"/><path class="cls-2" d="M104,38.6A14.19,14.19,0,1,1,89.84,24.48,14.15,14.15,0,0,1,104,38.6Zm-23,0a8.82,8.82,0,1,0,8.82-8.81A8.82,8.82,0,0,0,81,38.6Z"/><path class="cls-2" d="M122.24,25.13a13.73,13.73,0,0,1,14,13.47,13.73,13.73,0,0,1-14,13.47h-8.35V25.13ZM119.38,47h2.86a8.76,8.76,0,0,0,8.47-8.42,8.76,8.76,0,0,0-8.47-8.42h-2.86Z"/><path class="cls-2" d="M164.8,25.13v4.76L151.45,46.65H164.8v5.42H144V47.31l13.36-16.76H144.24V25.13Z"/><path class="cls-2" d="M180.69,25.13V52.07h-5.5V25.13Z"/><line class="cls-1" x1="143.99" y1="38.47" x2="164.8" y2="38.47"/></g></g></svg>