<svg xmlns="http://www.w3.org/2000/svg" viewBox="0 0 305.24 85.29"><defs><style>.cls-1{fill:#fff;}</style></defs><g id="Layer_2" data-name="Layer 2"><g id="Layer_1-2" data-name="Layer 1"><path class="cls-1" d="M5.79,46.24H40.63a4.11,4.11,0,0,1,4.11,4.11V65.87a0,0,0,0,1,0,0h-56a1.3,1.3,0,0,1-1.3-1.3v0A18.33,18.33,0,0,1,5.79,46.24Z" transform="translate(-40.5 41.97) rotate(-60)"/><path class="cls-1" d="M-10.44,33H76.8a0,0,0,0,1,0,0V48.48a4.11,4.11,0,0,1-4.11,4.11H6.58A18.33,18.33,0,0,1-11.74,34.26v0a1.3,1.3,0,0,1,1.3-1.3Z" transform="translate(53.3 -6.78) rotate(60)"/><path class="cls-1" d="M70.73,65.2H34.15L44.63,83.36a3,3,0,0,0,2.06,1.47H58a13.75,13.75,0,0,0,13.71-13.7V66.18A1,1,0,0,0,70.73,65.2Z"/><path class="cls-1" d="M95.2,28.81V50.25h12.23v5.5H89.53V28.81Z"/><path class="cls-1" d="M137.86,42.28a14.19,14.19,0,1,1-14.19-14.12A14.15,14.15,0,0,1,137.86,42.28Zm-22.88,0a8.69,8.69,0,1,0,8.69-8.69A8.69,8.69,0,0,0,115,42.29Z"/><path class="cls-1" d="M165.73,31.6l-3.18,4.72A10.77,10.77,0,0,0,156,34c-4.44.06-8.74,2.92-8.93,8.29.19,5.35,4.49,8.22,8.93,8.28a10.77,10.77,0,0,0,6.56-2.32L165.73,53A15.26,15.26,0,0,1,156,56.41c-8.65,0-14.76-6.47-14.76-14.12S147.33,28.16,156,28.16A15.26,15.26,0,0,1,165.73,31.6Z"/><path class="cls-1" d="M195.63,42.28a14.19,14.19,0,1,1-14.18-14.12A14.15,14.15,0,0,1,195.63,42.28Zm-22.87,0a8.69,8.69,0,1,0,8.69-8.69A8.69,8.69,0,0,0,172.76,42.29Z"/><path class="cls-1" d="M223.5,31.6l-3.18,4.72A10.74,10.74,0,0,0,213.76,34c-4.44.06-8.74,2.92-8.93,8.29.19,5.35,4.49,8.22,8.93,8.28a10.74,10.74,0,0,0,6.56-2.32L223.5,53a15.26,15.26,0,0,1-9.75,3.44c-8.65,0-14.75-6.47-14.75-14.12s6.1-14.13,14.75-14.13A15.26,15.26,0,0,1,223.5,31.6Z"/><path class="cls-1" d="M253.4,42.28a14.19,14.19,0,1,1-14.18-14.12A14.15,14.15,0,0,1,253.4,42.28Zm-22.87,0a8.69,8.69,0,1,0,8.69-8.69A8.69,8.69,0,0,0,230.53,42.29Z"/><path class="cls-1" d="M260.29,28.81l7,19.21,7-19.21h5.86l-9.81,26.94h-6.09l-9.81-26.94Z"/><path class="cls-1" d="M289.12,28.81v16.4a5.25,5.25,0,1,0,10.49,0V28.81h5.63V45.4a10.88,10.88,0,1,1-21.75,0V28.81Z"/></g></g></svg>