<svg xmlns="http://www.w3.org/2000/svg" viewBox="0 0 605.83 150.45"><defs><style>.cls-1{fill:#fff;}</style></defs><g id="Layer_2" data-name="Layer 2"><g id="Layer_1-2" data-name="Layer 1"><path class="cls-1" d="M182.5,47V90.23h24.66v11.09H171.08V47Z"/><path class="cls-1" d="M268.48,74.18a28.59,28.59,0,1,1-28.59-28.47A28.52,28.52,0,0,1,268.48,74.18Zm-46.1,0a17.51,17.51,0,1,0,17.51-17.52A17.52,17.52,0,0,0,222.38,74.18Z"/><path class="cls-1" d="M324.66,52.65l-6.41,9.5A21.69,21.69,0,0,0,305,57.47c-9,.12-17.63,5.9-18,16.71.38,10.8,9.05,16.58,18,16.7a21.6,21.6,0,0,0,13.21-4.68l6.42,9.5A30.69,30.69,0,0,1,305,102.64c-17.44,0-29.75-13-29.75-28.46S287.57,45.71,305,45.71A30.69,30.69,0,0,1,324.66,52.65Z"/><path class="cls-1" d="M384.92,74.18a28.59,28.59,0,1,1-28.59-28.47A28.52,28.52,0,0,1,384.92,74.18Zm-46.1,0a17.52,17.52,0,1,0,17.51-17.52A17.52,17.52,0,0,0,338.82,74.18Z"/><path class="cls-1" d="M441.1,52.65l-6.41,9.5a21.69,21.69,0,0,0-13.22-4.68c-9,.12-17.63,5.9-18,16.71.38,10.8,9.05,16.58,18,16.7a21.62,21.62,0,0,0,13.22-4.68l6.41,9.5a30.69,30.69,0,0,1-19.65,6.94c-17.44,0-29.75-13-29.75-28.46S404,45.71,421.45,45.71A30.69,30.69,0,0,1,441.1,52.65Z"/><path class="cls-1" d="M501.36,74.18a28.59,28.59,0,1,1-28.59-28.47A28.52,28.52,0,0,1,501.36,74.18Zm-46.1,0a17.52,17.52,0,1,0,17.51-17.52A17.52,17.52,0,0,0,455.26,74.18Z"/><path class="cls-1" d="M515.24,47l14.1,38.71L543.45,47h11.81l-19.78,54.3H523.21L503.43,47Z"/><path class="cls-1" d="M573.35,47v33a10.58,10.58,0,1,0,21.13,0V47h11.35V80.46a21.92,21.92,0,1,1-43.83,0V47Z"/><path class="cls-1" d="M8.68,81.57H73a6.7,6.7,0,0,1,6.7,6.7v27.9a0,0,0,0,1,0,0H-19.1A2.13,2.13,0,0,1-21.23,114v-2.56A29.91,29.91,0,0,1,8.68,81.57Z" transform="translate(-71 74.77) rotate(-60)"/><path class="cls-1" d="M-17.7,58.15H136.24a0,0,0,0,1,0,0V86a6.7,6.7,0,0,1-6.7,6.7H10.09A29.91,29.91,0,0,1-19.82,62.84V60.28a2.13,2.13,0,0,1,2.13-2.13Z" transform="translate(94.45 -12.69) rotate(60)"/><path class="cls-1" d="M125.55,115H61.06l18.48,32a5.44,5.44,0,0,0,3.63,2.6h19.94a24.23,24.23,0,0,0,24.16-24.16v-8.72A1.72,1.72,0,0,0,125.55,115Z"/></g></g></svg>