<svg xmlns="http://www.w3.org/2000/svg" viewBox="0 0 605.55 149.04"><defs><style>.cls-1{fill:#fff;}</style></defs><g id="Layer_2" data-name="Layer 2"><g id="Layer_1-2" data-name="Layer 1"><path class="cls-1" d="M216.43,46.55c11.35,0,20.37,9.73,20.37,21.23S227.78,89,216.43,89h-8.84v11.6h-11V46.55Zm-8.84,31.5h8.84c5.09,0,9.41-4.37,9.41-10.27s-4.32-10.27-9.41-10.27h-8.84Z"/><path class="cls-1" d="M268.61,46.55l19.69,54.06H276.61L272.39,89H253.13l-4.22,11.6H237.22l19.7-54.06ZM257.15,78h11.22l-5.61-15.38Z"/><path class="cls-1" d="M295.83,46.55l14,38.53,11-30.11L331.7,85.09l14-38.54H357.5l-19.69,54.06H325.6l-4.76-13.36L316,100.61h-12.2l-19.7-54.06Z"/><path class="cls-1" d="M408.68,52.15l-6.38,9.47A21.55,21.55,0,0,0,389.14,57c-8.92.12-17.55,5.88-17.93,16.63.38,10.76,9,16.51,17.93,16.63a21.49,21.49,0,0,0,13.15-4.66L408.68,95a30.55,30.55,0,0,1-19.56,6.91c-17.36,0-29.61-13-29.61-28.34s12.25-28.33,29.61-28.33A30.54,30.54,0,0,1,408.68,52.15Z"/><path class="cls-1" d="M444.21,46.55l19.7,54.06H452.22L448,89H428.74l-4.23,11.6H412.82l19.7-54.06ZM432.76,78H444l-5.61-15.38Z"/><path class="cls-1" d="M489.9,46.55c11.36,0,20.38,9.73,20.38,21.23S501.26,89,489.9,89h-8.83v11.6h-11V46.55Zm-8.83,31.5h8.83c5.1,0,9.42-4.37,9.42-10.27S495,57.51,489.9,57.51h-8.83Z"/><path class="cls-1" d="M550.35,50.29l-6.18,8.93a17.59,17.59,0,0,0-9.27-3c-3,0-6.44,1.72-6.44,5s5.76,5,8.68,5.94c9,2.41,16.48,7.94,16.48,17.11v0c0,8.91-7.35,17.59-19.09,17.59-7.76,0-13.72-2.86-19.14-7L521,85.39c3.78,2.81,8.21,5.26,13.37,5.26,3.76,0,8-1.84,8-6.31,0-4-5.94-5.84-9.66-7-7.68-2.08-15.5-6.75-15.5-16.13,0-8.91,8.1-16,17.7-16C542.2,45.25,546.42,47.83,550.35,50.29Z"/><path class="cls-1" d="M573.22,46.55V79.44a10.53,10.53,0,1,0,21,0V46.55h11.3V79.83a21.82,21.82,0,1,1-43.64,0V46.55Z"/><path class="cls-1" d="M115.17,98,92.26,75.13a30.54,30.54,0,0,0-42.8,0L27,97.63a29.87,29.87,0,0,0,0,42.25h0a29.87,29.87,0,0,0,42.25,0l1.65-1.65,2.06,2.06a29.87,29.87,0,0,0,42.25,0h0A29.87,29.87,0,0,0,115.17,98Z"/><ellipse class="cls-1" cx="18.21" cy="59.04" rx="17.52" ry="25.9" transform="translate(-14.66 6.73) rotate(-15)"/><ellipse class="cls-1" cx="123.92" cy="59.04" rx="25.9" ry="17.52" transform="matrix(0.26, -0.97, 0.97, 0.26, 34.82, 163.46)"/><ellipse class="cls-1" cx="51.9" cy="25.9" rx="17.52" ry="25.9"/><ellipse class="cls-1" cx="92.44" cy="25.9" rx="17.52" ry="25.9"/></g></g></svg>